Coordinates
version=1
nRows=19
nColumns=34
inDegrees=yes

Units are S.I. units (second, meters, Newtons, ...)
If the header above contains a line with 'inDegrees', this indicates whether rotational values are in degrees (yes) or radians (no).

endheader
time	pelvis_tilt	pelvis_list	pelvis_rotation	pelvis_tx	pelvis_ty	pelvis_tz	hip_flexion_r	hip_adduction_r	hip_rotation_r	knee_angle_r	ankle_angle_r	subtalar_angle_r	mtp_angle_r	hip_flexion_l	hip_adduction_l	hip_rotation_l	knee_angle_l	ankle_angle_l	subtalar_angle_l	mtp_angle_l	lumbar_extension	lumbar_bending	lumbar_rotation	arm_flex_r	arm_add_r	arm_rot_r	elbow_flex_r	pro_sup_r	arm_flex_l	arm_add_l	arm_rot_l	elbow_flex_l	pro_sup_l
      0.00000000	     -0.13552488	      4.95033125	    -21.98909625	      0.10104512	      0.77232759	      0.04129632	     60.69609013	    -18.64411190	     -2.85218025	     80.30492746	     32.96595149	     -3.28516068	      0.00000000	     60.82026066	    -18.99908818	    -15.52791254	     76.47241103	     32.04892529	      5.37626626	      0.00000000	    -19.93812927	     -2.97053636	      0.34621305	     62.43572001	    -30.95571574	     44.30561193	    102.56057832	    119.74817918	     59.47017229	    -29.30362758	     39.42338035	    103.50654232	    116.27456578
      0.01666670	     -0.39859597	      4.73501638	    -21.83925119	      0.10178912	      0.77325872	      0.04134493	     60.50548532	    -18.47988965	     -3.17975538	     80.02954151	     32.76284034	     -3.79008929	      0.00000000	     60.99268453	    -19.01329304	    -15.17550619	     76.34588208	     32.13575322	      5.36565367	      0.00000000	    -19.73058487	     -2.58919140	      0.72352322	     61.82523264	    -31.60243664	     43.73096507	    103.36045725	    119.74817918	     59.40741922	    -28.87010482	     39.57959477	    103.15991700	    117.31885232
      0.03333330	     -0.61158805	      4.80240567	    -21.81301477	      0.10290116	      0.77605666	      0.04190174	     60.25954353	    -18.43684600	     -3.34992577	     79.45044534	     32.69404677	     -3.75876195	      0.00000000	     60.77568641	    -19.01279438	    -15.35668230	     75.85470956	     32.07176066	      5.42719953	      0.00000000	    -19.42765510	     -2.55568584	      0.70236159	     61.68922640	    -31.61258308	     43.76303468	    103.29953911	    119.74817918	     59.48136646	    -28.82561601	     39.48862399	    103.20080931	    117.35252741
      0.05000000	     -0.53148948	      4.37523186	    -21.78815356	      0.10486752	      0.78121874	      0.04333680	     58.99736208	    -18.09568215	     -3.94983359	     78.49194141	     32.52033819	     -4.05998814	      0.00000000	     59.88945699	    -19.33600386	    -15.42783223	     75.18101002	     32.17346684	      6.04137685	      0.00000000	    -19.49926613	     -2.13912794	      0.93167346	     61.26777442	    -31.59975328	     43.37786885	    103.17611900	    119.74817918	     59.27101016	    -28.66848758	     39.06763147	    102.90957386	    119.74817918
      0.06666670	     -0.84004136	      4.49337876	    -21.73883920	      0.10705728	      0.78536425	      0.04441041	     58.60007387	    -17.97957648	     -4.08052592	     77.66698909	     32.43530261	     -4.02250352	      0.00000000	     59.53032639	    -19.18585199	    -15.58995951	     74.43134218	     32.10363604	      6.09525535	      0.00000000	    -18.96842668	     -2.08378566	      0.98957999	     61.13310330	    -31.68941274	     43.43843603	    103.10525280	    119.74817918	     59.32296171	    -28.80757723	     39.07199942	    102.89946572	    119.74817918
      0.08333330	     -1.13513556	      4.61667133	    -21.72837717	      0.10963033	      0.79029772	      0.04585054	     58.07331322	    -17.81236004	     -4.23507371	     76.70218808	     32.31347503	     -4.03158871	      0.00000000	     59.01804199	    -18.97124892	    -15.69423301	     73.50992524	     32.00805227	      6.12472951	      0.00000000	    -18.39684447	     -2.06857685	      1.06243485	     60.92552745	    -31.65910934	     43.58974555	    103.09403470	    119.74817918	     59.23412121	    -28.86017212	     39.22522900	    102.91866109	    119.74817918
      0.10000000	     -0.55628318	      4.47354595	    -21.63002485	      0.11251547	      0.79820240	      0.04739014	     56.26999706	    -17.67706632	     -4.34201487	     75.40871912	     31.82869950	     -4.98929233	      0.00000000	     57.23579821	    -18.47618099	    -15.85245861	     72.18988528	     31.81162196	      5.75422360	      0.00000000	    -18.93467606	     -2.16571830	      0.97818995	     60.65853733	    -31.36797670	     43.38088791	    102.78741370	    119.74817918	     59.23173584	    -28.68804507	     39.28103142	    102.68604857	    119.74817918
      0.11666670	     -0.81595577	      4.56794861	    -21.65209406	      0.11543036	      0.80414849	      0.04882146	     55.55772358	    -17.44935576	     -4.46617044	     74.24086437	     31.62631938	     -4.97903883	      0.00000000	     56.51880419	    -18.18508207	    -15.94124176	     70.99601601	     31.62020077	      5.72669166	      0.00000000	    -18.34061380	     -2.18205861	      1.10878342	     60.26144484	    -31.28535420	     43.56424824	    102.58573293	    119.74817918	     58.81592669	    -28.59262751	     39.46211074	    102.61790583	    119.74817918
      0.13333330	     -0.08521864	      4.41473841	    -21.77146268	      0.11849189	      0.81278248	      0.05015236	     53.57646271	    -17.28251026	     -4.49729840	     72.76754369	     31.12878814	     -5.56865342	      0.00000000	     54.53847538	    -17.58713321	    -15.97460827	     69.61699135	     31.27762085	      5.05082817	      0.00000000	    -18.94541147	     -2.30818999	      1.12793839	     60.06130564	    -31.01534900	     43.43928927	    101.97948500	    119.74567051	     58.56397520	    -28.40479975	     39.36723241	    102.17549342	    119.73868116
      0.15000000	      0.15200112	      4.37304582	    -21.85473240	      0.12177726	      0.82046652	      0.05188284	     52.10130693	    -17.04491340	     -4.61397891	     71.28552054	     30.82647065	     -5.85781612	      0.00000000	     53.07366286	    -17.08586668	    -15.99440230	     68.14101036	     31.12678410	      4.52059591	      0.00000000	    -18.80495278	     -2.42954848	      1.20850741	     59.74833979	    -30.80871316	     43.78258423	    101.39013484	    119.71175617	     58.08329610	    -28.10167900	     39.52983768	    101.57145370	    119.70261710
      0.16666670	      0.66286655	      4.24003746	    -21.92011871	      0.12566361	      0.82901697	      0.05376305	     50.21732706	    -16.78351188	     -4.61410725	     69.72862482	     30.42473010	     -6.30643426	      0.00000000	     51.23445619	    -16.46994417	    -15.90265128	     66.60424155	     30.78434313	      3.90280075	      0.00000000	    -18.97039650	     -2.57588485	      1.25478314	     59.42905776	    -30.63886430	     44.27526822	    100.89268833	    119.63464958	     57.53820083	    -27.74302080	     39.61653683	    101.05975054	    119.60857479
      0.18333330	      1.29302594	      4.03376284	    -21.94027922	      0.12955612	      0.83768667	      0.05543135	     48.17720827	    -16.51848042	     -4.57904200	     68.17092249	     29.95831319	     -6.62715651	      0.00000000	     49.29279424	    -15.82166889	    -15.70927859	     65.08955561	     30.42009332	      3.42488767	      0.00000000	    -19.31711985	     -2.64322412	      1.26300476	     59.27375060	    -30.53786630	     44.93902619	    100.36509901	    119.47230574	     57.20595258	    -27.50162897	     39.86172328	    100.60138419	    119.45078985
      0.20000000	      1.55568930	      3.88135552	    -21.95280653	      0.13346104	      0.84559716	      0.05760305	     46.50438403	    -16.31271980	     -4.94191873	     66.61303558	     29.66525296	     -6.87863740	      0.00000000	     47.70082145	    -15.44060615	    -15.71843698	     63.51817525	     30.16529462	      3.06207979	      0.00000000	    -19.11527370	     -2.70809526	      1.32698116	     58.91683046	    -30.34223988	     45.63488126	     99.64371252	    119.32582341	     56.90982332	    -27.22220451	     40.30342350	    100.02938062	    119.32583717
      0.21666670	      2.10421488	      3.58247744	    -21.88966529	      0.13748899	      0.85446377	      0.05932578	     44.33122387	    -16.04372832	     -5.19019950	     64.83210407	     29.25200885	     -7.08687934	      0.00000000	     45.75262475	    -14.92175703	    -15.53537191	     61.86450134	     29.77778138	      2.79654309	      0.00000000	    -19.35949783	     -2.64190628	      1.31421863	     58.65812184	    -30.21126746	     46.27903640	     99.05772384	    119.02903630	     56.63645437	    -27.03171745	     40.78136666	     99.63067176	    119.08702616
      0.23333330	      2.52462887	      3.28908003	    -21.79156419	      0.14195424	      0.86286236	      0.06150253	     42.26888815	    -15.86358108	     -5.73006005	     63.10499090	     28.95769991	     -7.15398034	      0.00000000	     43.92245056	    -14.60650698	    -15.52638752	     60.27175459	     29.51646692	      2.74800066	      0.00000000	    -19.35267651	     -2.57674200	      1.28106607	     58.21722831	    -30.12852974	     46.88091709	     98.50175210	    118.51510586	     56.28916570	    -26.97065722	     41.22375191	     99.42547952	    118.67892603
      0.25000000	      2.81140951	      3.11902221	    -21.70728480	      0.14623006	      0.87088277	      0.06364591	     40.42156059	    -15.68332476	     -6.13410241	     61.33149734	     28.62479467	     -7.09626596	      0.00000000	     42.25190359	    -14.27020571	    -15.60036639	     58.62446182	     29.20594820	      2.85834361	      0.00000000	    -19.10013318	     -2.57345457	      1.29283459	     57.80716982	    -30.04999821	     47.45013602	     97.67878702	    118.07069703	     56.01201831	    -26.89393540	     41.64558989	     98.89203673	    118.31666107
      0.26666670	      3.15863396	      2.95293421	    -21.62291304	      0.15060519	      0.87878817	      0.06597417	     38.49932194	    -15.62382903	     -6.76008295	     59.54934421	     28.41748795	     -6.91398301	      0.00000000	     40.47281385	    -14.02932968	    -15.91004097	     56.94222257	     28.96055219	      3.08040127	      0.00000000	    -18.95375287	     -2.60424653	      1.30738628	     57.59048799	    -29.97986946	     48.03902007	     97.06539859	    117.46917519	     55.86547411	    -26.81425807	     42.06681882	     98.54933025	    117.81659766
      0.28333330	      3.04040976	      2.99088808	    -21.57602939	      0.15451340	      0.88560000	      0.06812721	     37.25521263	    -15.52224993	     -7.27782899	     57.80253376	     28.00493694	     -6.78010007	      0.00000000	     39.30300858	    -13.81958114	    -16.28525098	     55.26513931	     28.45802198	      3.27126000	      0.00000000	    -18.21061184	     -2.64575675	      1.38760931	     57.28782230	    -29.79941517	     48.41643904	     96.25602897	    117.23077062	     55.57825312	    -26.57245788	     42.26910386	     97.91351218	    117.61074361
      0.30000000	      3.58991723	      2.81881148	    -21.50461672	      0.15838315	      0.89370831	      0.07004032	     35.12891390	    -15.47636231	     -7.80271409	     55.89176474	     27.76566180	     -6.47861489	      0.00000000	     37.30377368	    -13.45206559	    -16.55662822	     53.45061786	     28.16357964	      3.67444024	      0.00000000	    -18.43735139	     -2.65707754	      1.32775344	     57.43344418	    -29.72490792	     48.84365337	     95.77727807	    116.68215513	     55.56581168	    -26.54804554	     42.48301158	     97.61585093	    117.15086694
